<?xml version="1.0" encoding="UTF-8"?>
<svg xmlns="http://www.w3.org/2000/svg" xmlns:xlink="http://www.w3.org/1999/xlink" width="27px" height="26px" viewBox="0 0 26 26" version="1.1">
<g id="surface1">
<path style=" stroke:none;fill-rule:nonzero;fill:rgb(0%,0%,0%);fill-opacity:1;" d="M 10.195312 5.449219 C 8.765625 6.25 6.128906 11.699219 6.128906 13.839844 C 6.128906 14.894531 6.6875 15.617188 7.613281 15.792969 L 8.265625 15.925781 L 7.78125 15.523438 C 7.09375 14.949219 7 13.976562 7.519531 12.503906 C 8.152344 10.667969 9.15625 9.082031 9.972656 8.621094 C 10.808594 8.183594 11.253906 8.355469 12.332031 9.597656 L 13.371094 10.800781 L 12.757812 11.375 C 12.425781 11.679688 11.570312 12.503906 10.863281 13.171875 L 9.5625 14.375 L 10.769531 13.363281 C 12.648438 11.757812 12.574219 11.796875 12.960938 12.023438 C 13.222656 12.160156 13.410156 12.160156 13.667969 11.96875 C 13.855469 11.816406 14.132812 11.757812 14.28125 11.816406 C 14.484375 11.890625 14.449219 11.777344 14.1875 11.355469 C 13.59375 10.476562 13.558594 10.398438 13.890625 10.382812 C 14.988281 10.34375 15.601562 10.226562 15.601562 10.09375 C 15.601562 9.769531 12.035156 5.582031 11.589844 5.371094 C 10.996094 5.105469 10.789062 5.125 10.195312 5.449219 Z M 10.195312 5.449219 "/>
<path style=" stroke:none;fill-rule:nonzero;fill:rgb(0%,0%,0%);fill-opacity:1;" d="M 19.628906 5.523438 C 18.867188 5.925781 16.75 7.667969 15.898438 8.582031 C 15.453125 9.0625 15.394531 9.214844 15.601562 9.464844 C 15.730469 9.617188 15.933594 9.75 16.046875 9.75 C 16.15625 9.75 16.882812 9.117188 17.660156 8.335938 C 19.386719 6.613281 20.429688 6.117188 21.523438 6.5 L 22.25 6.730469 L 21.878906 7.875 C 21.449219 9.15625 19.925781 11.644531 19.296875 12.121094 C 19.054688 12.292969 18.644531 12.425781 18.402344 12.425781 L 17.941406 12.425781 L 18.460938 12.980469 C 19.074219 13.648438 19.667969 13.839844 20.335938 13.574219 C 20.707031 13.441406 21.078125 12.847656 21.953125 10.972656 C 22.953125 8.890625 23.101562 8.410156 23.121094 7.476562 C 23.121094 6.078125 22.710938 5.351562 21.878906 5.351562 C 21.339844 5.351562 21.320312 5.371094 21.578125 5.679688 C 21.730469 5.867188 21.914062 6.15625 22.007812 6.308594 C 22.082031 6.460938 21.953125 6.367188 21.710938 6.078125 C 21.339844 5.660156 20.632812 5.160156 20.390625 5.160156 C 20.355469 5.160156 20 5.332031 19.628906 5.523438 Z M 19.628906 5.523438 "/>
<path style=" stroke:none;fill-rule:nonzero;fill:rgb(0%,0%,0%);fill-opacity:1;" d="M 8.226562 14.664062 C 8.394531 14.703125 8.652344 14.703125 8.785156 14.664062 C 8.894531 14.605469 8.765625 14.566406 8.449219 14.566406 C 8.152344 14.566406 8.042969 14.605469 8.226562 14.664062 Z M 8.226562 14.664062 "/>
<path style=" stroke:none;fill-rule:nonzero;fill:rgb(0%,0%,0%);fill-opacity:1;" d="M 3.15625 19.023438 C 2.972656 19.25 2.972656 19.367188 3.175781 19.632812 C 3.363281 19.84375 3.363281 19.902344 3.195312 19.804688 C 3.046875 19.710938 2.898438 19.84375 2.765625 20.207031 C 2.304688 21.429688 2.320312 21.429688 3.660156 21.375 C 4.550781 21.335938 4.921875 21.238281 4.976562 21.03125 C 5.070312 20.78125 5.03125 20.78125 4.734375 21.03125 C 4.53125 21.203125 4.4375 21.21875 4.53125 21.066406 C 4.625 20.894531 4.476562 20.839844 4.011719 20.839844 C 3.25 20.839844 3.195312 20.628906 3.621094 19.558594 C 3.769531 19.195312 3.898438 18.851562 3.898438 18.8125 C 3.898438 18.621094 3.363281 18.773438 3.15625 19.023438 Z M 3.15625 19.023438 "/>
<path style=" stroke:none;fill-rule:nonzero;fill:rgb(0%,0%,0%);fill-opacity:1;" d="M 5.960938 19.15625 C 5.851562 19.480469 5.886719 19.632812 6.109375 19.710938 C 6.40625 19.824219 6.648438 19.5 6.667969 18.964844 C 6.703125 18.5625 6.128906 18.714844 5.960938 19.15625 Z M 5.960938 19.15625 "/>
<path style=" stroke:none;fill-rule:nonzero;fill:rgb(0%,0%,0%);fill-opacity:1;" d="M 7.242188 19.136719 C 7.113281 19.347656 7.058594 19.558594 7.09375 19.59375 C 7.132812 19.632812 7.746094 19.613281 8.449219 19.539062 C 9.472656 19.421875 9.75 19.328125 9.804688 19.058594 C 9.863281 18.773438 9.710938 18.734375 8.652344 18.734375 C 7.613281 18.734375 7.410156 18.792969 7.242188 19.136719 Z M 7.242188 19.136719 "/>
<path style=" stroke:none;fill-rule:nonzero;fill:rgb(0%,0%,0%);fill-opacity:1;" d="M 10.214844 18.90625 C 10.214844 19.003906 10.160156 19.214844 10.101562 19.367188 C 10.046875 19.539062 10.160156 19.671875 10.382812 19.75 C 10.605469 19.804688 10.769531 19.769531 10.769531 19.671875 C 10.769531 19.578125 11.179688 19.5 11.699219 19.5 C 12.425781 19.5 12.664062 19.421875 12.8125 19.117188 C 13 18.753906 12.960938 18.734375 11.605469 18.734375 C 10.847656 18.734375 10.214844 18.8125 10.214844 18.90625 Z M 10.214844 18.90625 "/>
<path style=" stroke:none;fill-rule:nonzero;fill:rgb(0%,0%,0%);fill-opacity:1;" d="M 13.1875 19.023438 C 13.054688 19.195312 12.980469 19.347656 13.019531 19.367188 C 13.277344 19.558594 14.671875 19.804688 14.671875 19.671875 C 14.671875 19.578125 14.914062 19.5 15.191406 19.5 C 15.691406 19.5 16.15625 19.214844 16.15625 18.886719 C 16.15625 18.8125 15.542969 18.734375 14.78125 18.734375 C 13.78125 18.734375 13.351562 18.8125 13.1875 19.023438 Z M 13.1875 19.023438 "/>
<path style=" stroke:none;fill-rule:nonzero;fill:rgb(0%,0%,0%);fill-opacity:1;" d="M 16.601562 18.886719 C 16.210938 19.15625 16.175781 19.652344 16.546875 19.75 C 16.734375 19.804688 16.898438 19.769531 16.898438 19.671875 C 16.898438 19.578125 17.308594 19.5 17.792969 19.5 C 18.609375 19.5 19.128906 19.269531 19.128906 18.886719 C 19.128906 18.695312 16.882812 18.695312 16.601562 18.886719 Z M 16.601562 18.886719 "/>
<path style=" stroke:none;fill-rule:nonzero;fill:rgb(0%,0%,0%);fill-opacity:1;" d="M 19.5 19.097656 C 19.5 19.519531 19.964844 19.84375 20.207031 19.613281 C 20.355469 19.460938 20.019531 18.886719 19.722656 18.773438 C 19.59375 18.734375 19.5 18.886719 19.5 19.097656 Z M 19.5 19.097656 "/>
<path style=" stroke:none;fill-rule:nonzero;fill:rgb(0%,0%,0%);fill-opacity:1;" d="M 21.339844 19.230469 L 20.894531 19.75 L 21.320312 19.632812 C 21.671875 19.558594 21.710938 19.578125 21.523438 19.804688 C 21.414062 19.957031 21.152344 20.074219 20.949219 20.074219 C 20.671875 20.074219 20.613281 20.167969 20.726562 20.492188 C 20.894531 21.105469 21.171875 21.410156 21.523438 21.410156 C 21.691406 21.410156 21.746094 21.355469 21.636719 21.257812 C 21.28125 20.992188 21.449219 20.113281 21.96875 19.558594 C 22.25 19.25 22.472656 18.945312 22.472656 18.867188 C 22.472656 18.542969 21.746094 18.773438 21.339844 19.230469 Z M 21.339844 19.230469 "/>
<path style=" stroke:none;fill-rule:nonzero;fill:rgb(0%,0%,0%);fill-opacity:1;" d="M 8.820312 20.074219 C 8.730469 20.226562 8.394531 20.246094 7.78125 20.167969 C 7.28125 20.09375 6.871094 20.074219 6.871094 20.113281 C 6.871094 20.148438 6.796875 20.457031 6.703125 20.800781 C 6.554688 21.296875 6.574219 21.410156 6.796875 21.410156 C 6.945312 21.410156 7.167969 21.203125 7.28125 20.933594 C 7.429688 20.570312 7.632812 20.457031 8.058594 20.457031 C 8.671875 20.457031 9.265625 20.167969 9.0625 19.976562 C 9.007812 19.902344 8.894531 19.957031 8.820312 20.074219 Z M 8.820312 20.074219 "/>
<path style=" stroke:none;fill-rule:nonzero;fill:rgb(0%,0%,0%);fill-opacity:1;" d="M 11.792969 20.054688 C 11.679688 20.167969 11.199219 20.265625 10.695312 20.304688 C 9.863281 20.359375 9.769531 20.417969 9.636719 20.875 L 9.507812 21.410156 L 10.769531 21.410156 C 11.753906 21.410156 12.054688 21.335938 12.144531 21.105469 C 12.3125 20.628906 12.3125 20.628906 11.328125 20.761719 C 10.695312 20.855469 10.398438 20.820312 10.398438 20.667969 C 10.398438 20.550781 10.679688 20.457031 11.03125 20.457031 C 11.367188 20.457031 11.753906 20.320312 11.886719 20.167969 C 12.144531 19.863281 12.070312 19.769531 11.792969 20.054688 Z M 11.792969 20.054688 "/>
<path style=" stroke:none;fill-rule:nonzero;fill:rgb(0%,0%,0%);fill-opacity:1;" d="M 17.921875 20.054688 C 17.867188 20.167969 17.402344 20.265625 16.882812 20.265625 C 16.378906 20.265625 15.953125 20.339844 15.953125 20.457031 C 15.933594 20.550781 15.914062 20.761719 15.898438 20.875 C 15.878906 21.011719 15.804688 21.183594 15.691406 21.277344 C 15.601562 21.355469 16.136719 21.394531 16.898438 21.375 C 18.070312 21.316406 18.292969 21.257812 18.347656 20.972656 C 18.402344 20.667969 18.328125 20.628906 17.585938 20.742188 C 17.046875 20.820312 16.714844 20.800781 16.640625 20.667969 C 16.546875 20.53125 16.714844 20.457031 17.121094 20.457031 C 17.773438 20.457031 18.367188 20.167969 18.164062 19.976562 C 18.105469 19.902344 17.996094 19.941406 17.921875 20.054688 Z M 17.921875 20.054688 "/>
<path style=" stroke:none;fill-rule:nonzero;fill:rgb(0%,0%,0%);fill-opacity:1;" d="M 5.570312 20.246094 C 5.570312 20.339844 5.515625 20.570312 5.441406 20.761719 C 5.347656 21.011719 5.386719 21.066406 5.628906 20.972656 C 5.792969 20.914062 5.941406 20.894531 5.941406 20.953125 C 5.941406 20.992188 5.757812 21.125 5.535156 21.21875 C 5.238281 21.335938 5.199219 21.394531 5.402344 21.394531 C 5.757812 21.410156 6.035156 21.105469 6.203125 20.492188 C 6.3125 20.148438 6.257812 20.074219 5.960938 20.074219 C 5.738281 20.074219 5.570312 20.148438 5.570312 20.246094 Z M 5.570312 20.246094 "/>
<path style=" stroke:none;fill-rule:nonzero;fill:rgb(0%,0%,0%);fill-opacity:1;" d="M 14.113281 20.226562 C 13.816406 20.320312 13.558594 20.648438 13.558594 20.914062 C 13.558594 20.992188 13.6875 21.03125 13.835938 20.953125 C 14.28125 20.78125 14.152344 21.03125 13.707031 21.21875 C 13.335938 21.394531 13.335938 21.410156 13.648438 21.355469 C 13.855469 21.335938 14.132812 21.066406 14.261719 20.78125 C 14.542969 20.167969 14.523438 20.074219 14.113281 20.226562 Z M 14.113281 20.226562 "/>
<path style=" stroke:none;fill-rule:nonzero;fill:rgb(0%,0%,0%);fill-opacity:1;" d="M 19.148438 20.761719 C 18.570312 21.410156 18.570312 21.410156 19.015625 21.410156 C 19.59375 21.410156 20.597656 20.167969 20.058594 20.132812 C 19.871094 20.113281 19.460938 20.398438 19.148438 20.761719 Z M 20.058594 20.320312 C 20.058594 20.359375 19.835938 20.589844 19.554688 20.855469 L 19.035156 21.316406 L 19.480469 20.78125 C 19.910156 20.304688 20.058594 20.167969 20.058594 20.320312 Z M 20.058594 20.320312 "/>
</g>
</svg>
